<?xml version="1.0" encoding="iso-8859-1"?>
<!-- Uploaded to: SVG Repo, www.svgrepo.com, Generator: SVG Repo Mixer Tools -->
<svg fill="#000000" height="800px" width="800px" version="1.1" id="Layer_1" xmlns="http://www.w3.org/2000/svg" xmlns:xlink="http://www.w3.org/1999/xlink" 
	 viewBox="0 0 512 512" xml:space="preserve">
<g>
	<g>
		<path d="M290.603,137.423c-28.058,0-50.884,22.826-50.884,50.884c0,28.058,22.826,50.884,50.884,50.884
			s50.884-22.826,50.884-50.884C341.487,160.249,318.661,137.423,290.603,137.423z"/>
	</g>
</g>
<g>
	<g>
		<path d="M437.02,74.98C388.667,26.628,324.381,0,256,0C187.62,0,123.333,26.628,74.98,74.98C26.628,123.333,0,187.62,0,256
			s26.628,132.667,74.98,181.02C123.333,485.372,187.62,512,256,512c68.381,0,132.667-26.628,181.02-74.98
			C485.372,388.667,512,324.38,512,256S485.372,123.333,437.02,74.98z M396.473,340.04c-15.793,26.3-38.755,47.825-66.169,61.845
			c5.753,9.244,7.815,20.737,4.84,32.038l-0.009,0.036c-5.969,22.666-29.722,35.637-52.053,28.516
			c-45.915-14.642-86.65-32.334-123.64-53.648c-32.567-18.765-63.146-40.924-92.661-67.201
			c-17.668-15.731-18.369-43.123-1.504-59.713c7.663-7.538,17.587-11.461,27.607-11.72c-0.404-4.679-0.622-9.411-0.622-14.194
			c0-80.819,58.862-148.141,135.965-161.371c17.868-11.936,39.323-18.907,62.376-18.907c58.79,0,107.201,45.297,112.165,102.823
			c26.451,17.36,42.517,46.757,42.517,78.875C445.286,292.946,425.549,323.938,396.473,340.04z"/>
	</g>
</g>
<g>
	<g>
		<path d="M265.727,298.123c-50.638-11.445-87.709-57.028-87.709-109.816c0-15,2.956-29.321,8.304-42.42
			c-36.437,23.139-60.669,63.848-60.669,110.113c0,11.011,1.379,21.705,3.961,31.927c22.601,19.31,45.697,35.627,70.669,50.016
			c28.473,16.405,59.825,30.411,94.916,42.378c18.576-5.87,35.361-15.799,49.322-28.737
			C310.527,349.279,280.35,328.698,265.727,298.123z"/>
	</g>
</g>
</svg>